<svg id="f1a18cae-c808-45b6-a205-262ecb9da704" data-name="Layer 1" xmlns="http://www.w3.org/2000/svg" viewBox="0 0 124.28955 116.39136"><defs><style>.a587f861-c43f-4d70-ba51-910a7c975b70{fill:#333;}</style></defs><title>moon</title><path class="a587f861-c43f-4d70-ba51-910a7c975b70" d="M105.87,14.99A67.03658,67.03658,0,0,0,93.45,6.1a2.32535,2.32535,0,0,0-2.71.33,1.95706,1.95706,0,0,0-.29,2.53c15.63,22.93,12.29,52.52-8.11,71.97a64.62068,64.62068,0,0,1-44.91,17.6A66.2976,66.2976,0,0,1,5.19,90.26a2.30969,2.30969,0,0,0-2.71.33,1.94258,1.94258,0,0,0-.28,2.53,63.84187,63.84187,0,0,0,9.86,11.32,69.47938,69.47938,0,0,0,46.9,17.76,69.1898,69.1898,0,0,0,48.09-18.86c12.53-11.94,19.31-27.71,19.09-44.4S118.72,26.64,105.87,14.99Z" transform="translate(-1.85564 -5.80864)"/></svg>