<svg id="fd3eb685-98e4-4410-87a2-0fc6b83469ec" data-name="Layer 1" xmlns="http://www.w3.org/2000/svg" viewBox="0 0 127.05999 127.03"><defs><style>.ed9f2dbf-150c-4484-a0fb-75cc79bf32d8{fill:#fff;}</style></defs><title>sun</title><path class="ed9f2dbf-150c-4484-a0fb-75cc79bf32d8" d="M64,30.34A33.655,33.655,0,1,0,97.66,63.99,33.65775,33.65775,0,0,0,64,30.34Z" transform="translate(-0.48 -0.49)"/><path class="ed9f2dbf-150c-4484-a0fb-75cc79bf32d8" d="M56.76,24.21H71.25a2.05023,2.05023,0,0,0,1.92-2.76L65.92,1.83a2.04552,2.04552,0,0,0-3.84,0L54.83,21.46a2.03867,2.03867,0,0,0,1.93,2.75Z" transform="translate(-0.48 -0.49)"/><path class="ed9f2dbf-150c-4484-a0fb-75cc79bf32d8" d="M97.26,40.99a2.02038,2.02038,0,0,0,1.44.6,2.18637,2.18637,0,0,0,.36-.03,2.06725,2.06725,0,0,0,1.5-1.16l8.76-19.01a2.0522,2.0522,0,0,0-2.72-2.72l-19,8.77a2.04917,2.04917,0,0,0-1.16,1.5A2.08421,2.08421,0,0,0,87,30.75Z" transform="translate(-0.48 -0.49)"/><path class="ed9f2dbf-150c-4484-a0fb-75cc79bf32d8" d="M126.18,62.08l-19.64-7.24a2.06151,2.06151,0,0,0-1.88.24,2.01751,2.01751,0,0,0-.87,1.67l.01,14.49a2.04486,2.04486,0,0,0,.88,1.68,2.14783,2.14783,0,0,0,1.17.36,1.93945,1.93945,0,0,0,.71-.13l19.64-7.24a2.04782,2.04782,0,0,0,1.34-1.93A2.08153,2.08153,0,0,0,126.18,62.08Z" transform="translate(-0.48 -0.49)"/><path class="ed9f2dbf-150c-4484-a0fb-75cc79bf32d8" d="M100.56,87.6a2.03909,2.03909,0,0,0-3.3-.59L87.01,97.26a2.04733,2.04733,0,0,0,.59,3.31l19.01,8.76a1.95417,1.95417,0,0,0,.86.18,2.04447,2.04447,0,0,0,1.85-2.9Z" transform="translate(-0.48 -0.49)"/><path class="ed9f2dbf-150c-4484-a0fb-75cc79bf32d8" d="M71.24,103.78h0l-14.49.01a2.02688,2.02688,0,0,0-1.67.88,2.07762,2.07762,0,0,0-.25,1.87l7.25,19.64a2.04552,2.04552,0,0,0,3.84,0l7.25-19.64a2.05024,2.05024,0,0,0-1.93-2.76Z" transform="translate(-0.48 -0.49)"/><path class="ed9f2dbf-150c-4484-a0fb-75cc79bf32d8" d="M30.74,87.01a2.03908,2.03908,0,0,0-3.3.59l-8.76,19.01a2.04584,2.04584,0,0,0,2.72,2.71l19.01-8.77a2.03909,2.03909,0,0,0,.59-3.3Z" transform="translate(-0.48 -0.49)"/><path class="ed9f2dbf-150c-4484-a0fb-75cc79bf32d8" d="M22.17,73.29a2.0789,2.0789,0,0,0,1.17-.37,2.04484,2.04484,0,0,0,.88-1.68l-.01-14.49a2.04619,2.04619,0,0,0-2.75-1.92L1.82,62.08a2.04552,2.04552,0,0,0,0,3.84l19.65,7.24A1.88775,1.88775,0,0,0,22.17,73.29Z" transform="translate(-0.48 -0.49)"/><path class="ed9f2dbf-150c-4484-a0fb-75cc79bf32d8" d="M27.45,40.4a2.04913,2.04913,0,0,0,1.5,1.16,2.18625,2.18625,0,0,0,.36.03,2.04331,2.04331,0,0,0,1.45-.6L41,30.74a2.045,2.045,0,0,0-.6-3.3L21.38,18.68a2.049,2.049,0,0,0-2.71,2.72Z" transform="translate(-0.48 -0.49)"/></svg>