<svg xmlns="http://www.w3.org/2000/svg" viewBox="0 0 1705.83747 1131.34003"><defs><style>.\32 2eba276-72f0-4360-988a-cb4ceffbe1d2{fill:none;}.d04904fc-13eb-46d5-bd7c-b3213570d7d6{fill:#ceb2b2;}.\34 685daab-d09f-4d85-9040-56a445aac25b{fill:#b29e9e;}.\38 1675720-1dc1-49e4-90e9-5098f47ce1c3{fill:#ffe8e6;}.\38 5900073-bae4-4c02-a56d-e109b883f5f8{fill:#d3c2c2;}</style></defs><title>teapot</title><g id="6c9947f5-ab9b-4e35-87d9-df97e7c94c6f" data-name="Layer 1"><path class="22eba276-72f0-4360-988a-cb4ceffbe1d2" d="M1653.15,841.29c-79.85-39.72-156.79-12.82-215.22009,26.9,88.19007,83.71,141.91016,194.32,141.91016,315.62006,0,75.58984-20.69007,147.33984-57.71009,210.54993,152.78992-37.16,245.34-117.88,266.02991-236.61C1811.02,1026.64,1735.89,882.71,1653.15,841.29Z" transform="translate(-158.08002 -477.40997)"/><path class="d04904fc-13eb-46d5-bd7c-b3213570d7d6" d="M977.93,477.41c-22.14,0-39.92,20.93-39.92,46.98v17.94c0,26.05,17.78,46.98,39.92,46.98h.37v31.17a56.67931,56.67931,0,0,1-8.35,29.05H703.92c-17.78,0-32.3,17.08-32.3,38.01a41.51335,41.51335,0,0,0,9.48,26.85c5.86,6.89,13.93005,11.16,22.82,11.16h19.96a109.414,109.414,0,0,0-5.8,35.02v34.59c-94,55.52-166.95,134.96-206.51,228.06a123.25645,123.25645,0,0,1-13.43-24.34c-37.38-89.69-109.97-273.33-109.97-273.33H158.08v43.99s121.58,33.31,150.61,161.01c26.86,118.3-39.19,471.92,268.93,523.59991,38.11,46.9801,86.02,87.55005,140.82,120.01V1608.75H1030V477.41Z" transform="translate(-158.08002 -477.40997)"/><path class="4685daab-d09f-4d85-9040-56a445aac25b" d="M1681.46,764.41c-92.18994-46.12-192.36-32.88-289.61987,38.86-5.44007,3.85-11.25,8.55005-17.42017,13.67-10.88989-7.69-22.5-14.95-34.11987-21.78V760.57A109.414,109.414,0,0,0,1334.5,725.55h19.96c17.78,0,32.30005-17.09,32.30005-38.01a41.49321,41.49321,0,0,0-9.48-26.85c-5.86011-6.89-13.93-11.16-22.82007-11.16H1087.71a56.58419,56.58419,0,0,1-8.35-29.05V589.31h.36c22.14,0,39.92-20.93,39.92-46.98V524.39c0-26.05-17.78-46.98-39.92-46.98H1024V1608.75h316.66992v-34.59009A549.75069,549.75069,0,0,0,1445.55005,1493.87c314.65991-39.29,394.5-210.98,413.01-318.61C1888.32007,1000.16,1789.24,818.22,1681.46,764.41Zm106.7,393.34C1767.47,1276.48,1674.91992,1357.2,1522.13,1394.36c37.02-63.21009,57.71009-134.96009,57.71009-210.54993,0-121.30005-53.72009-231.9101-141.91016-315.62006,58.43006-39.72,135.37012-66.62,215.22009-26.9C1735.89,882.71,1811.02,1026.64,1788.15991,1157.75Z" transform="translate(-158.08002 -477.40997)"/></g><g id="7e859ba7-8cee-4f04-82ec-0f1c6f409e17" data-name="Layer 2"><circle class="81675720-1dc1-49e4-90e9-5098f47ce1c3" cx="559.91998" cy="469.59003" r="21"/><circle class="81675720-1dc1-49e4-90e9-5098f47ce1c3" cx="714.91998" cy="755.59003" r="20"/><circle class="81675720-1dc1-49e4-90e9-5098f47ce1c3" cx="476.91998" cy="896.94767" r="20"/><circle class="81675720-1dc1-49e4-90e9-5098f47ce1c3" cx="410.91998" cy="640.59003" r="20"/><circle class="81675720-1dc1-49e4-90e9-5098f47ce1c3" cx="754.91998" cy="1000.59003" r="20"/><circle class="85900073-bae4-4c02-a56d-e109b883f5f8" cx="1134.12776" cy="428.59003" r="20"/><circle class="85900073-bae4-4c02-a56d-e109b883f5f8" cx="958.91998" cy="849.3404" r="20"/><circle class="85900073-bae4-4c02-a56d-e109b883f5f8" cx="1299.85115" cy="809.3404" r="20"/><circle class="85900073-bae4-4c02-a56d-e109b883f5f8" cx="1154.12776" cy="660.59003" r="20"/><circle class="85900073-bae4-4c02-a56d-e109b883f5f8" cx="938.91998" cy="588.59003" r="20"/><circle class="85900073-bae4-4c02-a56d-e109b883f5f8" cx="1204.91998" cy="960.59003" r="20"/><circle class="81675720-1dc1-49e4-90e9-5098f47ce1c3" cx="755.91998" cy="365.34676" r="21"/><circle class="85900073-bae4-4c02-a56d-e109b883f5f8" cx="1347.12776" cy="597.59003" r="20"/></g></svg>